#!OML:ASF E:\Steps\Project 1\Capture day 1\Session 2\Subject.ASF
:FULLY-SPECIFIED
:DEGREES
308
root 7.86674 16.0386 22.2443 -156.951 -2.90987 177.002
lowerback -23.1523 -3.68958 -7.16241
upperback 1.21888 -3.15632 0.825687
thorax 14.9533 -2.09289 3.91451
lowerneck -3.08243 -3.28808 -1.27479
upperneck 15.5321 -4.15915 3.52518
head 5.27696 -1.59358 1.10559
rclavicle 3.16813e-015 1.799e-014
rhumerus -44.2116 -26.7138 -66.4908
rradius 24.7015
rwrist 5.76662
rhand -9.45212 -52.3675
rfingers 7.12502
rthumb 16.5112 -81.6849
lclavicle 3.16813e-015 1.799e-014
lhumerus -21.7056 -3.35411 83.4606
lradius 31.3289
lwrist -1.88749
lhand -21.8982 -12.5275
lfingers 7.12502
lthumb 4.50704 17.4045
rfemur -43.4883 4.30418 10.9185
rtibia 9.10146
rfoot -11.0819 -10.6249
rtoes -37.3488
lfemur -15.7774 -9.90684 -23.6331
ltibia 13.6477
lfoot -14.684 -3.68748
ltoes -34.636
309
root 7.89222 16.0258 22.1334 -156.834 -3.04871 177.107
lowerback -23.217 -3.76636 -7.08135
upperback 1.07777 -3.30189 0.916822
thorax 14.8409 -2.15394 3.92037
lowerneck -3.09548 -3.4508 -1.35081
upperneck 15.5654 -4.38989 3.63193
head 5.29958 -1.70255 1.1379
rclavicle -1.17656e-014 -6.26172e-015
rhumerus -44.5945 -27.1996 -65.94
rradius 24.3297
rwrist 6.41131
rhand -9.76311 -53.2213
rfingers 7.12502
rthumb 16.2118 -82.5635
lclavicle -1.17656e-014 -6.26172e-015
lhumerus -21.8903 -3.44471 83.479
lradius 31.3675
lwrist -1.91743
lhand -22.3289 -12.5033
lfingers 7.12502
lthumb 4.09121 17.4372
rfemur -43.3575 4.21036 11.3421
rtibia 9.17192
rfoot -10.6008 -10.4682
rtoes -38.282
lfemur -15.8257 -10.1171 -23.3807
ltibia 14.2808
lfoot -14.7473 -3.76123
ltoes -33.109
310
root 7.91388 16.0164 22.011 -156.802 -3.171 177.357
lowerback -23.4911 -3.77588 -6.73636
upperback 1.08181 -3.39907 0.969731
thorax 14.9971 -2.17686 3.73874
lowerneck -3.19948 -3.35718 -1.27261
upperneck 15.5069 -4.27364 3.59572
head 5.29356 -1.64777 1.11861
rclavicle 9.75287e-015 5.36719e-015
rhumerus -44.7155 -27.5136 -65.7974
rradius 24.0548
rwrist 6.42007
rhand -11.1164 -55.367
rfingers 7.12502
rthumb 14.9084 -84.8105
lclavicle 9.75287e-015 5.36719e-015
lhumerus -21.946 -3.48205 83.4036
lradius 31.461
lwrist -1.92861
lhand -22.4922 -12.4772
lfingers 7.12502
lthumb 3.9335 17.4662
rfemur -43.1217 4.15114 11.9918
rtibia 9.52883
rfoot -10.1238 -10.3084
rtoes -39.506
lfemur -15.7343 -10.6061 -23.0015
ltibia 14.979
lfoot -15.0087 -3.30449
ltoes -33.831
311
root 7.93714 16.0008 21.8824 -156.79 -3.23752 177.623
lowerback -24.0337 -3.81321 -6.54212
upperback 1.22616 -3.47918 1.13875
thorax 15.4953 -2.21784 3.77281
lowerneck -3.46528 -3.15694 -1.28493
upperneck 15.6078 -3.9824 3.39411
head 5.35884 -1.51886 1.0704
rclavicle -1.60705e-014 1.39646e-014
rhumerus -44.5533 -27.6997 -65.7618
rradius 23.8392
rwrist 6.06799
rhand -10.222 -53.0594
rfingers 7.12502
rthumb 15.7699 -82.437
lclavicle -1.60705e-014 1.39646e-014
lhumerus -21.8454 -3.35802 83.4936
lradius 31.5819
lwrist -1.92646
lhand -22.4902 -12.4824
lfingers 7.12502
lthumb 3.93541 17.461
rfemur -42.857 4.02993 12.7872
rtibia 9.98679
rfoot -9.66646 -10.0342
rtoes -40.6097
lfemur -15.5953 -10.8431 -22.642
ltibia 15.7283
lfoot -15.3762 -2.95157
ltoes -35.1023
312
root 7.96341 15.9847 21.7542 -156.878 -3.30126 177.753
lowerback -23.9759 -3.84012 -6.2522
upperback 1.08367 -3.61336 1.12522
thorax 15.2837 -2.24891 3.54412
lowerneck -3.37926 -3.03447 -1.27326
upperneck 15.8183 -3.78752 3.32289
head 5.40302 -1.41596 1.05942
rclavicle 1.48343e-014 -1.98785e-015
rhumerus -44.9571 -27.8395 -65.6375
rradius 23.6003
rwrist 6.25599
rhand -10.2762 -52.8085
rfingers 7.12502
rthumb 15.7176 -82.1902
lclavicle 1.48343e-014 -1.98785e-015
lhumerus -22.3619 -3.35771 83.3478
lradius 31.7941
lwrist -1.86429
lhand -22.8048 -12.3785
lfingers 7.12502
lthumb 3.63159 17.5703
rfemur -42.4093 3.83404 13.461
rtibia 10.3373
rfoot -9.00441 -9.78195
rtoes -41.5912
lfemur -15.3497 -10.8821 -22.4557
ltibia 16.5063
lfoot -15.6554 -2.94834
ltoes -35.5951
313
root 7.9902 15.9704 21.63 -156.943 -3.37052 177.778
lowerback -24.2223 -3.8757 -6.27529
upperback 1.13547 -3.64143 1.17054
thorax 15.4976 -2.27042 3.58933
lowerneck -3.26384 -3.1337 -1.30275
upperneck 15.645 -3.93127 3.36094
head 5.3344 -1.49282 1.06921
rclavicle -1.81267e-014 -2.03754e-015
rhumerus -45.1994 -28.6728 -64.9991
rradius 23.2319
rwrist 7.39573
rhand -10.0262 -53.5558
rfingers 7.12502
rthumb 15.9584 -82.9184
lclavicle -1.81267e-014 -2.03754e-015
lhumerus -22.3778 -3.31771 83.3841
lradius 31.7731
lwrist -2.08875
lhand -23.0859 -12.2609
lfingers 7.12502
lthumb 3.36014 17.6924
rfemur -42.0035 3.69622 13.9111
rtibia 10.6413
rfoot -8.0317 -9.89075
rtoes -43.079
lfemur -15.1607 -11.0281 -22.3669
ltibia 17.3164
lfoot -15.7549 -2.94977
ltoes -36.0028
314
root 8.01539 15.9591 21.5051 -157.021 -3.39283 177.856
lowerback -24.2286 -3.86408 -6.07456
upperback 1.05488 -3.68776 1.14318
thorax 15.3918 -2.27136 3.42574
lowerneck -3.1562 -3.27092 -1.30183
upperneck 15.5438 -4.14303 3.53733
head 5.29357 -1.58769 1.11345
rclavicle -1.55052e-014 -1.799e-014
rhumerus -45.6359 -29.1737 -64.5382
rradius 22.9911
rwrist 8.26695
rhand -9.5032 -53.667
rfingers 7.12502
rthumb 16.462 -82.9885
lclavicle -1.55052e-014 -1.799e-014
lhumerus -22.6945 -3.31996 83.2784
lradius 31.8413
lwrist -2.11907
lhand -23.3572 -12.0129
lfingers 7.12502
lthumb 3.0981 17.9444
rfemur -41.6813 3.5731 14.3818
rtibia 10.9596
rfoot -7.02404 -10.2492
rtoes -44.8254
lfemur -14.9851 -11.3771 -22.229
ltibia 18.1498
lfoot -15.7475 -2.60959
ltoes -36.4849
315
root 8.04377 15.953 21.3787 -157.13 -3.271 177.965
lowerback -24.8383 -3.89977 -6.21289
upperback 1.39361 -3.65684 1.32984
thorax 16.181 -2.29539 3.70801
lowerneck -3.42644 -3.18848 -1.36998
upperneck 15.2659 -4.03112 3.31032
head 5.24747 -1.57162 1.05548
rclavicle -9.45004e-015 -9.00743e-016
rhumerus -45.0936 -29.5729 -64.5112
rradius 22.8093
rwrist 8.26989
rhand -9.90729 -53.2638
rfingers 7.12502
rthumb 16.0729 -82.6172
lclavicle -9.45004e-015 -9.00743e-016
lhumerus -22.2429 -3.0399 83.4615
lradius 31.7751
lwrist -1.88538
lhand -22.8755 -12.0582
lfingers 7.12502
lthumb 3.56336 17.8918
rfemur -41.3995 3.49556 14.8633
rtibia 11.2668
rfoot -6.37416 -10.4844
rtoes -45.5372
lfemur -14.8127 -11.6765 -22.0834
ltibia 19.044
lfoot -15.7248 -2.19733
ltoes -36.9946
